<?xml version="1.0" standalone="no"?><!DOCTYPE svg PUBLIC "-//W3C//DTD SVG 1.1//EN" "http://www.w3.org/Graphics/SVG/1.1/DTD/svg11.dtd"><svg t="1736473043505" class="icon" viewBox="0 0 2139 1024" version="1.1" xmlns="http://www.w3.org/2000/svg" p-id="15744" width="100.265625" height="48" xmlns:xlink="http://www.w3.org/1999/xlink"><path d="M1902.149654 492.5692c-2.440513-12.202565 267.075008-275.59378 210.874137-305.133197s-310.981218 190.106753-320.74327 214.534907c-2.072134 5.065216-40.383583 9.43972-99.66963 13.169561 16.116595-82.586039 46.415794-182.647072-15.58705-187.0446 0 0-66.768752-8.426677-92.325067 180.45982q-0.80583 5.96314-1.519565 11.972328c-43.745044 1.749802-91.427143 3.29239-140.605782 4.604741 12.616992-119.723279 72.248394-303.015015-11.511854-310.175388 0 0-78.280606-11.511854-108.050259 251.395863-2.302371 20.537147-4.213338 41.212437-5.686856 61.864702-48.741189 1.082114-96.699572 1.980039-140.997185 2.739821 5.686856-150.598071 80.582976-419.422881-9.209483-428.977719 0 0-78.142463-14.896339-108.211426 322.470048-3.200295 35.963031-5.571737 72.271418-7.137349 108.418639-67.114108 0.920948-110.513796 1.335375-110.513796 1.335375-1.24328 0-2.302371 0-3.591699 0.138142 0.897925-227.082828 4.604742-434.342243 4.604742-434.342243C247.873242 15.517979 0.000006 477.051221 0.000006 477.051221 206.891042 951.915189 954.770135 1009.658648 954.770135 1009.911908c-12.616992-29.608488-16.646141-222.31692-17.175686-431.602421l112.033361-0.36838c3.499604 244.695964 43.330618 449.491843 105.517652 446.015263 64.788713-3.706817 41.074294-262.815622 27.628449-446.475737l131.373275-0.43745c5.111263 185.110609 44.665993 337.619648 105.609747 334.948897 62.877745-2.67075 42.248503-193.19193 28.618468-335.386348l129.485332-0.43745c6.538733 125.364088 39.669848 225.862571 89.516175 223.997651 50.813323-1.841897 37.666786-124.673376 26.200979-224.389054l122.877527-0.414427c312.293569 259.82254 319.776274 213.521864 322.331906 167.036998S1904.590167 504.771765 1902.149654 492.5692z m-1742.388141-7.321539s172.677807-321.503052 656.405902-332.370243c0 0-11.511854 655.554025 8.795057 703.305195-0.230237 0-521.118597-40.291488-665.200959-370.934952z" fill="" p-id="15745"></path><path d="M489.000531 336.445439a140.836019 140.836019 0 1 0 140.90509 140.836019 140.836019 140.836019 0 0 0-140.90509-140.836019z m0 211.818109a70.959067 70.959067 0 1 1 70.959067-70.959067 70.959067 70.959067 0 0 1-70.959067 70.936043z" fill="" p-id="15746"></path></svg>