<?xml version="1.0" standalone="no"?><!DOCTYPE svg PUBLIC "-//W3C//DTD SVG 1.1//EN" "http://www.w3.org/Graphics/SVG/1.1/DTD/svg11.dtd"><svg t="1736473320828" class="icon" viewBox="0 0 1024 1024" version="1.1" xmlns="http://www.w3.org/2000/svg" p-id="19784" width="128" height="128" xmlns:xlink="http://www.w3.org/1999/xlink"><path d="M993.35463822 536.93280711c-43.10812445-42.00129422-99.67297422-19.922944-123.84847644-7.22352356l11.47608177-16.252928c36.46714311-59.53581511-22.19485867-110.97429333-22.8356551-111.49858133l-2.21366045-1.92238933-1.92238933 2.21366044c-0.34952533 0.40777955-35.70983822 41.65176889-79.45875912 79.22574222-17.94230045 15.43736889-27.55424711 30.75822933-28.42806044 45.49654756-0.81555911 13.631488 6.23320178 21.61231645 6.34971022 21.67057067l26.33090845 35.82634667c-29.65139911 12.87418311-55.98230755 14.27228445-78.23542045 4.01954133-38.56429511-17.70928355-49.98212267-52.77832533-50.09863111-53.30261333-22.83565511-129.61564445-135.09154133-223.69621333-266.92084622-223.69621334-149.48033422 0-271.056896 121.57656178-271.056896 271.056896s121.57656178 271.056896 271.056896 271.056896c6.58272711 0 13.22370845-0.23301689 19.68992711-0.69905066 17.301504 2.62144 29.41838222 4.01954133 46.02083556 4.01954133 182.39396978 0 321.79632355-145.752064 369.79780266-203.423744 0.11650845-0.11650845 0.34952533-0.29127111 0.46603378-0.40777956l-0.05825422-0.05825422a495.21914311 495.21914311 0 0 0 15.96165689-20.15596089c20.21421511 15.61213155 47.41893689 14.56355555 78.87621689-3.02921956 26.85519645-13.86450489 77.30335289-86.15799467 79.40050488-89.24546844l1.39810134-2.03889778-1.74762667-1.63111822zM402.83158755 847.13654045c-6.34971022 0.46603378-12.81592889 0.69905067-19.28214755 0.69905066-143.654912 0-260.92066133-114.819072-264.99845689-257.54191644 18.00055467 7.57304889 88.37165511 32.97188978 154.08241778-0.34952534 2.38842311-1.22333867 5.12637155-1.28159289 7.51479466-0.23301688 2.33016889 1.048576 4.01954133 2.97096533 4.718592 5.47589688 11.47608178 41.47700622 58.720256 173.83059911 191.53988267 173.83059912 3.49525333 0 6.99050667-0.11650845 10.60226845-0.29127112 152.04352 2.62144 262.90130489-63.49710222 309.50468266-97.34280533-64.487424 71.94396445-209.88996267 203.30723555-393.68203378 175.75298845z m508.73412267-222.298112c-30.932992 17.35975822-56.04056178 17.94230045-74.74016711 1.74762666l-2.44667733-2.097152-1.86413511 2.62144c-0.29127111 0.46603378-6.11669333 8.67987911-16.777216 21.78707911l-0.05825422-0.05825422c-13.631488 12.058624-138.412032 117.55702045-328.84508445 114.12002133-136.72265955 6.87399822-184.89890133-127.80976355-196.43323733-169.28676978-1.16508445-4.13604978-4.01954133-7.51479467-7.98082845-9.2041671a14.73831822 14.73831822 0 0 0-12.52465777 0.34952533c-67.34188089 34.13697422-139.984896 4.31081245-151.57748623-0.87381333 0-0.40777955-0.05825422-0.87381333-0.05825422-1.2815929 0-146.21809778 118.95512178-265.23147378 265.23147378-265.23147377 129.03310222 0 238.84231111 92.04167111 261.21193244 218.91936711 0.58254222 2.03889778 12.40814933 38.68080355 53.36086756 57.55517156 24.69979022 11.35957333 53.82690133 9.55369245 86.39101155-5.4758969l3.26223645-1.51460977-30.81648356-41.82653156c-0.23301689-0.29127111-5.767168-6.64098133-5.00986311-17.825792 0.87381333-13.1072 9.78670933-26.97170489 26.38916267-41.24398933 38.21476978-32.79712711 70.07982933-68.39045689 78.118912-77.594624 10.07798045 9.61194667 49.92386845 52.4288 19.63167289 101.94488889l-28.60282312 40.54493867 13.57323378-9.437184c0.75730489-0.524288 73.924608-50.38990222 126.41166222-1.98064356-8.44686222 11.94211555-52.66181689 73.34206578-75.84699733 85.34243556z" p-id="19785" fill="#2c2c2c"></path><path d="M452.28942222 713.55960889c-20.68024889 0-38.85556622-5.47589689-54.40944355-16.31118222-50.56466489-35.41856711-54.93373155-114.819072-55.10849422-118.19781689l5.82542222-0.29127111c0.05825422 0.81555911 4.36906667 79.98304711 52.60356266 113.71224178 24.52502755 17.12674133 56.33183289 19.86468978 94.60485689 8.03908266 13.16545422-12.058624 6.64098133-45.84607289-19.398656-100.43027911l5.24288-2.50493155c28.42806045 59.47756089 33.96221155 93.73104355 17.47626667 107.7703111l-1.048576 0.58254223c-16.36943645 5.12637155-31.69029689 7.63130311-45.78781867 7.63130311zM379.355136 287.25521067l-5.82542222-0.29127112c0-0.46603378-0.29127111-3.32049067-3.72827023-6.64098133-6.00018489-5.767168-20.73850311-12.34989511-57.08913777-10.83528533-11.70909867 0.29127111-15.32086045-5.767168-16.60245333-9.37892978-3.20398222-9.26242133 2.97096533-22.42787555 14.680064-31.34077156 18.69960533-14.155776 43.80717511-12.87418311 67.28362666 3.49525334l1.22333867 0.87381333v53.76864711c0.05825422 0.17476267 0.05825422 0.29127111 0.05825422 0.34952534z m-56.85612089-23.76772267c30.52521245 0 44.56448 6.40796445 51.03069867 12.34989511v-39.61287111c-30.00092445-20.15596089-51.32196978-8.67987911-59.18628978-2.73794845-10.54401422 7.98082845-14.73831822 18.874368-12.69942045 24.75804445 1.63111822 4.66033778 6.815744 5.47589689 10.89353956 5.47589689 3.49525333-0.17476267 6.815744-0.23301689 9.961472-0.23301689zM382.67562667 219.447296l-5.00986312-2.97096533v-0.05825422c0.05825422-0.17476267 0.64079645-1.45635555-0.17476266-3.84477867-1.22333867-3.670016-6.23320178-11.35957333-26.03963734-21.32104533-4.95160889-2.62144-7.340032-6.58272711-6.5827271-10.95179378 1.10683022-6.23320178 8.56337067-11.76735289 17.70928355-13.04894578 14.44704711-2.097152 27.61250133 6.11669333 35.36031289 21.96184178l0.69905066 1.33984711-15.90340266 28.71933155c0 0.11650845-0.05825422 0.17476267-0.05825422 0.17476267z m-15.84514845-46.60337778c-1.33984711 0-2.44667733 0.11650845-3.37874489 0.23301689-7.22352355 1.048576-12.29164089 5.12637155-12.81592888 8.33035378-0.29127111 1.74762667 0.87381333 3.37874489 3.49525333 4.77684622 14.91308089 7.51479467 24.35026489 15.02958933 27.96202667 22.36962134l9.961472-18.00055467c-7.86432-15.08784355-18.64135111-17.70928355-25.22407823-17.70928356zM385.76310045 287.25521067V233.13703822l1.22333866-0.87381333c23.41819733-16.31118222 48.58402133-17.65102933 67.28362667-3.49525334 11.70909867 8.912896 17.88404622 22.07835022 14.680064 31.34077156-1.22333867 3.61176178-5.06811733 9.49543822-16.48594489 9.37892978-36.35063467-1.51460978-51.14720711 5.06811733-57.147392 10.83528533-3.43699911 3.32049067-3.72827022 6.17494755-3.72827022 6.64098133v0.11650845l-5.82542222 0.17476267z m5.82542222-51.03069867v39.61287111c7.10701511-6.58272711 23.41819733-13.74799645 61.05042488-12.17513244 3.90303289 0.05825422 9.20416711-0.81555911 10.83528534-5.47589689 2.03889778-5.88367645-2.15540622-16.777216-12.69942044-24.75804445-7.86432-5.88367645-29.18536533-17.35975822-59.18628978 2.79620267zM232.554496 459.22167467c-15.26260622 0-27.61250133 12.34989511-27.61250133 27.61250133s12.34989511 27.61250133 27.61250133 27.61250133 27.61250133-12.34989511 27.61250133-27.61250133-12.34989511-27.61250133-27.61250133-27.61250133z m10.25274311 35.82634666c-6.00018489 0-10.89353955-4.89335467-10.89353956-10.89353955s4.89335467-10.89353955 10.89353956-10.89353956 10.89353955 4.89335467 10.89353956 10.89353956-4.83510045 10.89353955-10.89353956 10.89353955z" p-id="19786" fill="#2c2c2c"></path></svg>